<?xml version="1.0" encoding="utf-8"?>
<!-- Generator: Adobe Illustrator 19.0.0, SVG Export Plug-In . SVG Version: 6.00 Build 0)  -->
<svg version="1.1" id="Layer_3" xmlns="http://www.w3.org/2000/svg" xmlns:xlink="http://www.w3.org/1999/xlink" x="0px" y="0px"
	 viewBox="-245 362.9 50.8 43.9" style="enable-background:new -245 362.9 50.8 43.9;" xml:space="preserve">
<style type="text/css">
	.st0{fill:#FFFFFF;}
</style>
<rect x="-241.6" y="373.8" width="24" height="25"/>
<polyline points="-204.5,377.6 -214.7,377.6 -214.7,398.8 -197.4,398.8 -197.4,387.9 "/>
<rect x="-245" y="362.9" width="0" height="0.2"/>
<ellipse class="st0" cx="-230" cy="399.9" rx="7.1" ry="6.8"/>
<ellipse class="st0" cx="-207.3" cy="399.9" rx="7.1" ry="6.8"/>
<circle cx="-230" cy="400.2" r="4.4"/>
<circle cx="-222.2" cy="383.2" r="4.4"/>
<circle cx="-207.3" cy="399.8" r="4.4"/>
<circle class="st0" cx="-233.6" cy="374.2" r="11.4"/>
<circle cx="-233.5" cy="374.4" r="9.2"/>
<rect x="-234.3" y="367" class="st0" width="1.2" height="7.9"/>
<rect x="-231.8" y="372.4" transform="matrix(0.3532 -0.9355 0.9355 0.3532 -500.8194 26.4555)" class="st0" width="1.1" height="6"/>
<circle class="st0" cx="-233.6" cy="374.4" r="1.3"/>
</svg>
